<mxfile host="app.diagrams.net" agent="Mozilla/5.0 (Windows NT 10.0; Win64; x64) AppleWebKit/537.36 (KHTML, like Gecko) Chrome/136.0.0.0 Safari/537.36" version="27.0.6">
  <diagram name="Page-1" id="6blBKA80GBw_23OpQJHr">
    <mxGraphModel dx="1395" dy="848" grid="1" gridSize="10" guides="1" tooltips="1" connect="1" arrows="1" fold="1" page="1" pageScale="1" pageWidth="827" pageHeight="1169" math="0" shadow="0">
      <root>
        <mxCell id="0" />
        <mxCell id="1" parent="0" />
        <mxCell id="Fqugg-V7nLWeURiJOJVe-37" value="" style="rounded=0;whiteSpace=wrap;html=1;" vertex="1" parent="1">
          <mxGeometry x="5" y="220" width="830" height="410" as="geometry" />
        </mxCell>
        <mxCell id="Fqugg-V7nLWeURiJOJVe-1" value="" style="endArrow=classic;html=1;rounded=0;" edge="1" parent="1">
          <mxGeometry width="50" height="50" relative="1" as="geometry">
            <mxPoint x="140" y="560" as="sourcePoint" />
            <mxPoint x="740" y="560" as="targetPoint" />
          </mxGeometry>
        </mxCell>
        <mxCell id="Fqugg-V7nLWeURiJOJVe-2" value="" style="endArrow=classic;html=1;rounded=0;" edge="1" parent="1">
          <mxGeometry width="50" height="50" relative="1" as="geometry">
            <mxPoint x="140" y="560" as="sourcePoint" />
            <mxPoint x="140" y="300" as="targetPoint" />
          </mxGeometry>
        </mxCell>
        <mxCell id="Fqugg-V7nLWeURiJOJVe-3" value="" style="endArrow=none;dashed=1;html=1;rounded=0;opacity=50;" edge="1" parent="1">
          <mxGeometry width="50" height="50" relative="1" as="geometry">
            <mxPoint x="280" y="560" as="sourcePoint" />
            <mxPoint x="280" y="350" as="targetPoint" />
          </mxGeometry>
        </mxCell>
        <mxCell id="Fqugg-V7nLWeURiJOJVe-4" value="" style="endArrow=none;dashed=1;html=1;rounded=0;opacity=50;" edge="1" parent="1">
          <mxGeometry width="50" height="50" relative="1" as="geometry">
            <mxPoint x="140" y="500" as="sourcePoint" />
            <mxPoint x="720" y="500" as="targetPoint" />
          </mxGeometry>
        </mxCell>
        <mxCell id="Fqugg-V7nLWeURiJOJVe-5" value="" style="endArrow=none;dashed=1;html=1;rounded=0;opacity=50;" edge="1" parent="1" source="Fqugg-V7nLWeURiJOJVe-29">
          <mxGeometry width="50" height="50" relative="1" as="geometry">
            <mxPoint x="144" y="440" as="sourcePoint" />
            <mxPoint x="720" y="440" as="targetPoint" />
          </mxGeometry>
        </mxCell>
        <mxCell id="Fqugg-V7nLWeURiJOJVe-7" value="" style="endArrow=none;dashed=1;html=1;rounded=0;opacity=50;" edge="1" parent="1">
          <mxGeometry width="50" height="50" relative="1" as="geometry">
            <mxPoint x="420" y="560" as="sourcePoint" />
            <mxPoint x="420" y="350" as="targetPoint" />
          </mxGeometry>
        </mxCell>
        <mxCell id="Fqugg-V7nLWeURiJOJVe-8" value="" style="endArrow=none;dashed=1;html=1;rounded=0;opacity=50;" edge="1" parent="1" source="Fqugg-V7nLWeURiJOJVe-31">
          <mxGeometry width="50" height="50" relative="1" as="geometry">
            <mxPoint x="560" y="560" as="sourcePoint" />
            <mxPoint x="560" y="350" as="targetPoint" />
          </mxGeometry>
        </mxCell>
        <mxCell id="Fqugg-V7nLWeURiJOJVe-10" value="Monolithic" style="text;html=1;align=center;verticalAlign=middle;whiteSpace=wrap;rounded=0;" vertex="1" parent="1">
          <mxGeometry x="230" y="570" width="100" height="30" as="geometry" />
        </mxCell>
        <mxCell id="Fqugg-V7nLWeURiJOJVe-11" value="Modular Monolithic" style="text;html=1;align=center;verticalAlign=middle;whiteSpace=wrap;rounded=0;" vertex="1" parent="1">
          <mxGeometry x="370" y="570" width="100" height="30" as="geometry" />
        </mxCell>
        <mxCell id="Fqugg-V7nLWeURiJOJVe-12" value="Microservices" style="text;html=1;align=center;verticalAlign=middle;whiteSpace=wrap;rounded=0;" vertex="1" parent="1">
          <mxGeometry x="510" y="570" width="100" height="30" as="geometry" />
        </mxCell>
        <mxCell id="Fqugg-V7nLWeURiJOJVe-13" value="Transaction script" style="text;html=1;align=center;verticalAlign=middle;whiteSpace=wrap;rounded=0;" vertex="1" parent="1">
          <mxGeometry x="40" y="480" width="80" height="30" as="geometry" />
        </mxCell>
        <mxCell id="Fqugg-V7nLWeURiJOJVe-14" value="Layered" style="text;html=1;align=center;verticalAlign=middle;whiteSpace=wrap;rounded=0;" vertex="1" parent="1">
          <mxGeometry x="30" y="420" width="100" height="30" as="geometry" />
        </mxCell>
        <mxCell id="Fqugg-V7nLWeURiJOJVe-15" value="&lt;b&gt;Fonctional&lt;/b&gt;" style="text;html=1;align=center;verticalAlign=middle;whiteSpace=wrap;rounded=0;" vertex="1" parent="1">
          <mxGeometry x="30" y="270" width="100" height="30" as="geometry" />
        </mxCell>
        <mxCell id="Fqugg-V7nLWeURiJOJVe-16" value="&lt;b&gt;Technical&lt;/b&gt;" style="text;html=1;align=center;verticalAlign=middle;whiteSpace=wrap;rounded=0;" vertex="1" parent="1">
          <mxGeometry x="720" y="570" width="60" height="30" as="geometry" />
        </mxCell>
        <mxCell id="Fqugg-V7nLWeURiJOJVe-17" value="" style="endArrow=none;dashed=1;html=1;rounded=0;opacity=50;" edge="1" parent="1">
          <mxGeometry width="50" height="50" relative="1" as="geometry">
            <mxPoint x="140" y="380" as="sourcePoint" />
            <mxPoint x="720" y="380" as="targetPoint" />
          </mxGeometry>
        </mxCell>
        <mxCell id="Fqugg-V7nLWeURiJOJVe-18" value="Domain Driven" style="text;html=1;align=center;verticalAlign=middle;whiteSpace=wrap;rounded=0;" vertex="1" parent="1">
          <mxGeometry x="40" y="360" width="80" height="30" as="geometry" />
        </mxCell>
        <mxCell id="Fqugg-V7nLWeURiJOJVe-19" value="" style="endArrow=classic;html=1;rounded=0;fillColor=#1ba1e2;strokeColor=#006EAF;exitX=0.5;exitY=1;exitDx=0;exitDy=0;entryX=1.183;entryY=-0.008;entryDx=0;entryDy=0;entryPerimeter=0;" edge="1" parent="1" source="Fqugg-V7nLWeURiJOJVe-20" target="Fqugg-V7nLWeURiJOJVe-23">
          <mxGeometry width="50" height="50" relative="1" as="geometry">
            <mxPoint x="560" y="280" as="sourcePoint" />
            <mxPoint x="450" y="400" as="targetPoint" />
          </mxGeometry>
        </mxCell>
        <mxCell id="Fqugg-V7nLWeURiJOJVe-20" value="&lt;b&gt;Project 8 Modulith&lt;br&gt;&lt;/b&gt;" style="rounded=1;whiteSpace=wrap;html=1;fillColor=#1ba1e2;fontColor=#ffffff;strokeColor=#006EAF;" vertex="1" parent="1">
          <mxGeometry x="440" y="265" width="100" height="40" as="geometry" />
        </mxCell>
        <mxCell id="Fqugg-V7nLWeURiJOJVe-23" value="" style="shape=waypoint;sketch=0;fillStyle=solid;size=6;pointerEvents=1;points=[];fillColor=#1ba1e2;resizable=0;rotatable=0;perimeter=centerPerimeter;snapToPoint=1;fontColor=#ffffff;strokeColor=#006EAF;strokeWidth=2;" vertex="1" parent="1">
          <mxGeometry x="410" y="400" width="20" height="20" as="geometry" />
        </mxCell>
        <mxCell id="Fqugg-V7nLWeURiJOJVe-30" value="" style="endArrow=none;dashed=1;html=1;rounded=0;opacity=50;" edge="1" parent="1" target="Fqugg-V7nLWeURiJOJVe-29">
          <mxGeometry width="50" height="50" relative="1" as="geometry">
            <mxPoint x="144" y="440" as="sourcePoint" />
            <mxPoint x="720" y="440" as="targetPoint" />
          </mxGeometry>
        </mxCell>
        <mxCell id="Fqugg-V7nLWeURiJOJVe-29" value="" style="shape=waypoint;sketch=0;fillStyle=solid;size=6;pointerEvents=1;points=[];fillColor=#fa6800;resizable=0;rotatable=0;perimeter=centerPerimeter;snapToPoint=1;fontColor=#000000;strokeColor=#C73500;strokeWidth=2;" vertex="1" parent="1">
          <mxGeometry x="270" y="430" width="20" height="20" as="geometry" />
        </mxCell>
        <mxCell id="Fqugg-V7nLWeURiJOJVe-32" value="" style="endArrow=none;dashed=1;html=1;rounded=0;opacity=50;" edge="1" parent="1" target="Fqugg-V7nLWeURiJOJVe-31">
          <mxGeometry width="50" height="50" relative="1" as="geometry">
            <mxPoint x="560" y="560" as="sourcePoint" />
            <mxPoint x="560" y="350" as="targetPoint" />
          </mxGeometry>
        </mxCell>
        <mxCell id="Fqugg-V7nLWeURiJOJVe-31" value="" style="shape=waypoint;sketch=0;fillStyle=solid;size=6;pointerEvents=1;points=[];fillColor=#fa6800;resizable=0;rotatable=0;perimeter=centerPerimeter;snapToPoint=1;fontColor=#000000;strokeColor=#C73500;strokeWidth=2;" vertex="1" parent="1">
          <mxGeometry x="550" y="430" width="20" height="20" as="geometry" />
        </mxCell>
        <mxCell id="Fqugg-V7nLWeURiJOJVe-33" value="&lt;font style=&quot;color: rgb(255, 255, 255);&quot;&gt;&lt;b&gt;Projects&lt;/b&gt;&lt;/font&gt;&lt;div&gt;&lt;font style=&quot;color: rgb(255, 255, 255);&quot;&gt;&lt;b&gt;2 to 8&lt;/b&gt;&lt;/font&gt;&lt;/div&gt;" style="rounded=1;whiteSpace=wrap;html=1;fillColor=#fa6800;fontColor=#000000;strokeColor=#C73500;" vertex="1" parent="1">
          <mxGeometry x="300" y="265" width="100" height="40" as="geometry" />
        </mxCell>
        <mxCell id="Fqugg-V7nLWeURiJOJVe-34" value="&lt;font style=&quot;color: rgb(255, 255, 255);&quot;&gt;&lt;b&gt;Project&lt;/b&gt;&lt;/font&gt;&lt;div&gt;&lt;font color=&quot;#ffffff&quot;&gt;&lt;b&gt;9&lt;/b&gt;&lt;/font&gt;&lt;/div&gt;" style="rounded=1;whiteSpace=wrap;html=1;fillColor=#fa6800;fontColor=#000000;strokeColor=#C73500;" vertex="1" parent="1">
          <mxGeometry x="580" y="265" width="100" height="40" as="geometry" />
        </mxCell>
        <mxCell id="Fqugg-V7nLWeURiJOJVe-35" value="" style="endArrow=classic;html=1;rounded=0;fillColor=#fa6800;strokeColor=#C73500;exitX=0.5;exitY=1;exitDx=0;exitDy=0;entryX=0.85;entryY=0.158;entryDx=0;entryDy=0;entryPerimeter=0;" edge="1" parent="1" source="Fqugg-V7nLWeURiJOJVe-33" target="Fqugg-V7nLWeURiJOJVe-29">
          <mxGeometry width="50" height="50" relative="1" as="geometry">
            <mxPoint x="350" y="305" as="sourcePoint" />
            <mxPoint x="280" y="410" as="targetPoint" />
          </mxGeometry>
        </mxCell>
        <mxCell id="Fqugg-V7nLWeURiJOJVe-36" value="" style="endArrow=classic;html=1;rounded=0;fillColor=#fa6800;strokeColor=#C73500;exitX=0.5;exitY=1;exitDx=0;exitDy=0;" edge="1" parent="1" source="Fqugg-V7nLWeURiJOJVe-34" target="Fqugg-V7nLWeURiJOJVe-31">
          <mxGeometry width="50" height="50" relative="1" as="geometry">
            <mxPoint x="630" y="308" as="sourcePoint" />
            <mxPoint x="580" y="442.5" as="targetPoint" />
          </mxGeometry>
        </mxCell>
      </root>
    </mxGraphModel>
  </diagram>
</mxfile>
